<svg xmlns="http://www.w3.org/2000/svg" width="50" height="50" viewBox="0 0 50 50" fill="none"><path fill-rule="evenodd" clip-rule="evenodd" d="M33.107 6.8439C33.107 12.3964 37.6148 16.8976 43.1754 16.8976C43.7877 16.8945 44.3984 16.8358 45 16.722V36.6537C45 45.039 40.0537 50 31.6561 50H13.3659C4.94626 50 0 45.039 0 36.6537V18.3902C0 10.0049 4.94626 5 13.3659 5H33.2829C33.1647 5.60751 33.1058 6.22504 33.107 6.8439ZM27.8731 32.2415L35.0177 23.022V22.9781C35.6293 22.1562 35.4733 20.9972 34.6659 20.3659C34.2752 20.0642 33.7786 19.9337 33.2898 20.004C32.8009 20.0743 32.3615 20.3395 32.0719 20.739L26.0484 28.4878L19.1896 23.0878C18.798 22.7827 18.2999 22.6481 17.8077 22.7141C17.3154 22.7802 16.8706 23.0415 16.5736 23.439L9.18719 32.9659C8.92756 33.2895 8.78778 33.6927 8.79149 34.1073C8.74862 34.9454 9.27781 35.7066 10.0791 35.9595C10.8803 36.2125 11.7516 35.8933 12.1989 35.1829L18.3762 27.1927L25.2351 32.5707C25.6252 32.8853 26.1266 33.0278 26.6241 32.9657C27.1216 32.9036 27.5725 32.6422 27.8731 32.2415Z" fill="#0068D6"></path><circle opacity="0.4" cx="43.75" cy="6.25" r="6.25" fill="#0068D6"></circle></svg>