<svg xmlns="http://www.w3.org/2000/svg" width="156" height="47" viewBox="0 0 156 47" fill="none"><path d="M78.6047 25.7116C75.8948 25.7116 73.6862 27.7728 73.6862 30.6117C73.6862 33.4333 75.8948 35.5117 78.6047 35.5117C81.3156 35.5117 83.5243 33.4333 83.5243 30.6117C83.5231 27.7728 81.3145 25.7116 78.6047 25.7116ZM78.6047 33.583C77.1196 33.583 75.8395 32.3583 75.8395 30.6128C75.8395 28.8489 77.1207 27.6426 78.6047 27.6426C80.0898 27.6426 81.3698 28.8489 81.3698 30.6128C81.3698 32.3572 80.0898 33.583 78.6047 33.583ZM67.8737 25.7116C65.1638 25.7116 62.9552 27.7728 62.9552 30.6117C62.9552 33.4333 65.1638 35.5117 67.8737 35.5117C70.5846 35.5117 72.7933 33.4333 72.7933 30.6117C72.7933 27.7728 70.5846 25.7116 67.8737 25.7116ZM67.8737 33.583C66.3886 33.583 65.1085 32.3583 65.1085 30.6128C65.1085 28.8489 66.3897 27.6426 67.8737 27.6426C69.3588 27.6426 70.6388 28.8489 70.6388 30.6128C70.6399 32.3572 69.3588 33.583 67.8737 33.583ZM55.1103 27.2163V29.2948H60.0852C59.9366 30.4642 59.5472 31.3179 58.9527 31.9113C58.2291 32.6348 57.0966 33.4333 55.1103 33.4333C52.0479 33.4333 49.6538 30.9642 49.6538 27.9019C49.6538 24.8395 52.0479 22.3704 55.1103 22.3704C56.7625 22.3704 57.9687 23.0203 58.8593 23.8556L60.326 22.3889C59.0817 21.201 57.4307 20.292 55.1103 20.292C50.9154 20.292 47.3887 23.7069 47.3887 27.9019C47.3887 32.0968 50.9154 35.5117 55.1103 35.5117C57.3742 35.5117 59.0829 34.7686 60.4182 33.3768C61.7915 32.0035 62.219 30.0725 62.219 28.5136C62.219 28.032 62.1821 27.5862 62.1072 27.2152H55.1103V27.2163ZM107.311 28.8305C106.903 27.7359 105.659 25.7116 103.116 25.7116C100.592 25.7116 98.494 27.6979 98.494 30.6117C98.494 33.3584 100.574 35.5117 103.357 35.5117C105.603 35.5117 106.902 34.1384 107.441 33.3399L105.771 32.2258C105.214 33.0427 104.453 33.5807 103.357 33.5807C102.263 33.5807 101.483 33.0796 100.981 32.0956L107.534 29.3858L107.311 28.8305ZM100.629 30.4642C100.574 28.5701 102.096 27.6058 103.191 27.6058C104.045 27.6058 104.769 28.0332 105.01 28.645L100.629 30.4642ZM95.3026 35.2156H97.4548V20.8128H95.3026V35.2156ZM91.7747 26.8073H91.701C91.2183 26.2313 90.2896 25.7116 89.1214 25.7116C86.6708 25.7116 84.4253 27.865 84.4253 30.6313C84.4253 33.378 86.6708 35.5129 89.1214 35.5129C90.2908 35.5129 91.2183 34.9933 91.701 34.3999H91.7747V35.105C91.7747 36.9795 90.7724 37.9819 89.1582 37.9819C87.8402 37.9819 87.0233 37.036 86.6892 36.2376L84.8147 37.0176C85.3527 38.316 86.7814 39.9129 89.1582 39.9129C91.6826 39.9129 93.8175 38.4278 93.8175 34.8078V26.01H91.7759V26.8073H91.7747ZM89.3069 33.583C87.8218 33.583 86.5786 32.3387 86.5786 30.6313C86.5786 28.9042 87.8218 27.6426 89.3069 27.6426C90.7724 27.6426 91.9234 28.9042 91.9234 30.6313C91.9234 32.3387 90.7724 33.583 89.3069 33.583ZM117.397 20.8128H112.246V35.2156H114.395V29.7591H117.396C119.779 29.7591 122.122 28.0344 122.122 25.2865C122.122 22.5387 119.78 20.8128 117.397 20.8128ZM117.452 27.7544H114.395V22.8175H117.452C119.06 22.8175 119.972 24.1482 119.972 25.2865C119.972 26.4018 119.06 27.7544 117.452 27.7544ZM130.739 25.6863C129.182 25.6863 127.57 26.3718 126.903 27.8915L128.811 28.6876C129.219 27.8915 129.98 27.6311 130.776 27.6311C131.888 27.6311 133.018 28.2982 133.036 29.4837V29.6324C132.647 29.41 131.813 29.077 130.794 29.077C128.738 29.077 126.643 30.2073 126.643 32.3191C126.643 34.2467 128.33 35.4875 130.219 35.4875C131.664 35.4875 132.461 34.8389 132.961 34.0785H133.035V35.1903H135.111V29.6681C135.112 27.1126 133.202 25.6863 130.739 25.6863ZM130.478 33.5796C129.776 33.5796 128.793 33.227 128.793 32.356C128.793 31.2442 130.016 30.8179 131.073 30.8179C132.017 30.8179 132.462 31.0218 133.036 31.2995C132.869 32.6348 131.72 33.5796 130.478 33.5796ZM142.672 26.0008L140.207 32.2454H140.133L137.576 26.0008H135.26L139.095 34.7283L136.909 39.5834H139.151L145.062 26.0008H142.672ZM123.309 35.2156H125.457V20.8128H123.309V35.2156Z" fill="white"></path><path d="M54.7345 12.4527C54.7345 13.4181 54.4487 14.1866 53.8761 14.7604C53.2263 15.4425 52.3783 15.7835 51.3368 15.7835C50.3391 15.7835 49.4899 15.4378 48.7929 14.7466C48.0947 14.0541 47.7456 13.1969 47.7456 12.1738C47.7456 11.1496 48.0947 10.2924 48.7929 9.60112C49.4899 8.90868 50.3391 8.56304 51.3368 8.56304C51.8322 8.56304 52.3058 8.65982 52.7551 8.85223C53.2056 9.04579 53.5662 9.30271 53.8358 9.62416L53.2286 10.2325C52.7712 9.68522 52.141 9.41217 51.3357 9.41217C50.6075 9.41217 49.9784 9.66794 49.4473 10.1795C48.9162 10.691 48.6512 11.3558 48.6512 12.1727C48.6512 12.9896 48.9162 13.6543 49.4473 14.1659C49.9784 14.6774 50.6075 14.9332 51.3357 14.9332C52.1076 14.9332 52.7516 14.6763 53.2666 14.1613C53.6008 13.826 53.7943 13.3594 53.8462 12.7614H51.3357V11.9307H54.6849C54.7195 12.1116 54.7345 12.2856 54.7345 12.4527Z" fill="white"></path><path d="M60.0459 9.56547H56.8983V11.7568H59.7372V12.5875H56.8983V14.7789H60.0459V15.6292H56.01V8.71634H60.0459V9.56547Z" fill="white"></path><path d="M63.7914 15.6292H62.9031V9.56547H60.9721V8.71634H65.7224V9.56547H63.7914V15.6292Z" fill="white"></path><path d="M69.1592 15.6292V8.71634H70.0474V15.6292H69.1592Z" fill="white"></path><path d="M73.9868 15.6292H73.0985V9.56547H71.1675V8.71634H75.9178V9.56547H73.9868V15.6292Z" fill="white"></path><path d="M84.9099 14.7362C84.2302 15.4344 83.3857 15.7835 82.3752 15.7835C81.3648 15.7835 80.5203 15.4344 79.8417 14.7362C79.1619 14.0381 78.8232 13.1832 78.8232 12.1727C78.8232 11.1623 79.1619 10.3074 79.8417 9.60924C80.5203 8.91104 81.3648 8.56079 82.3752 8.56079C83.3799 8.56079 84.2233 8.91219 84.9053 9.61384C85.5874 10.3155 85.9284 11.1681 85.9284 12.1727C85.9284 13.1832 85.5886 14.0381 84.9099 14.7362ZM80.4973 14.1567C81.0088 14.6752 81.6344 14.9333 82.3752 14.9333C83.1161 14.9333 83.7428 14.674 84.2532 14.1567C84.7648 13.6383 85.0217 12.9769 85.0217 12.1727C85.0217 11.3685 84.7648 10.7072 84.2532 10.1888C83.7428 9.6703 83.1161 9.41222 82.3752 9.41222C81.6344 9.41222 81.0088 9.67145 80.4973 10.1888C79.9869 10.7072 79.7299 11.3685 79.7299 12.1727C79.7299 12.9769 79.9869 13.6383 80.4973 14.1567Z" fill="white"></path><path d="M87.1751 15.6292V8.71634H88.2558L91.6154 14.0934H91.6534L91.6154 12.7615V8.71634H92.5037V15.6292H91.5762L88.0611 9.99061H88.023L88.0611 11.3225V15.6292H87.1751Z" fill="white"></path><path d="M54.7345 12.4527C54.7345 13.4181 54.4487 14.1866 53.8761 14.7604C53.2263 15.4425 52.3783 15.7835 51.3368 15.7835C50.3391 15.7835 49.4899 15.4378 48.7929 14.7466C48.0947 14.0541 47.7456 13.1969 47.7456 12.1738C47.7456 11.1496 48.0947 10.2924 48.7929 9.60112C49.4899 8.90868 50.3391 8.56304 51.3368 8.56304C51.8322 8.56304 52.3058 8.65982 52.7551 8.85223C53.2056 9.04579 53.5662 9.30271 53.8358 9.62416L53.2286 10.2325C52.7712 9.68522 52.141 9.41217 51.3357 9.41217C50.6075 9.41217 49.9784 9.66794 49.4473 10.1795C48.9162 10.691 48.6512 11.3558 48.6512 12.1727C48.6512 12.9896 48.9162 13.6543 49.4473 14.1659C49.9784 14.6774 50.6075 14.9332 51.3357 14.9332C52.1076 14.9332 52.7516 14.6763 53.2666 14.1613C53.6008 13.826 53.7943 13.3594 53.8462 12.7614H51.3357V11.9307H54.6849C54.7195 12.1116 54.7345 12.2856 54.7345 12.4527Z" stroke="white" stroke-width="0.230427" stroke-miterlimit="10"></path><path d="M60.0459 9.56547H56.8983V11.7568H59.7372V12.5875H56.8983V14.7789H60.0459V15.6292H56.01V8.71634H60.0459V9.56547Z" stroke="white" stroke-width="0.230427" stroke-miterlimit="10"></path><path d="M63.7914 15.6292H62.9031V9.56547H60.9721V8.71634H65.7224V9.56547H63.7914V15.6292Z" stroke="white" stroke-width="0.230427" stroke-miterlimit="10"></path><path d="M69.1592 15.6292V8.71634H70.0474V15.6292H69.1592Z" stroke="white" stroke-width="0.230427" stroke-miterlimit="10"></path><path d="M73.9868 15.6292H73.0985V9.56547H71.1675V8.71634H75.9178V9.56547H73.9868V15.6292Z" stroke="white" stroke-width="0.230427" stroke-miterlimit="10"></path><path d="M84.9099 14.7362C84.2302 15.4344 83.3857 15.7835 82.3752 15.7835C81.3648 15.7835 80.5203 15.4344 79.8417 14.7362C79.1619 14.0381 78.8232 13.1832 78.8232 12.1727C78.8232 11.1623 79.1619 10.3074 79.8417 9.60924C80.5203 8.91104 81.3648 8.56079 82.3752 8.56079C83.3799 8.56079 84.2233 8.91219 84.9053 9.61384C85.5874 10.3155 85.9284 11.1681 85.9284 12.1727C85.9284 13.1832 85.5886 14.0381 84.9099 14.7362ZM80.4973 14.1567C81.0088 14.6752 81.6344 14.9333 82.3752 14.9333C83.1161 14.9333 83.7428 14.674 84.2532 14.1567C84.7648 13.6383 85.0217 12.9769 85.0217 12.1727C85.0217 11.3685 84.7648 10.7072 84.2532 10.1888C83.7428 9.6703 83.1161 9.41222 82.3752 9.41222C81.6344 9.41222 81.0088 9.67145 80.4973 10.1888C79.9869 10.7072 79.7299 11.3685 79.7299 12.1727C79.7299 12.9769 79.9869 13.6383 80.4973 14.1567Z" stroke="white" stroke-width="0.230427" stroke-miterlimit="10"></path><path d="M87.1751 15.6292V8.71634H88.2558L91.6154 14.0934H91.6534L91.6154 12.7615V8.71634H92.5037V15.6292H91.5762L88.0611 9.99061H88.023L88.0611 11.3225V15.6292H87.1751Z" stroke="white" stroke-width="0.230427" stroke-miterlimit="10"></path><path fill-rule="evenodd" clip-rule="evenodd" d="M11.8041 9.82963C11.668 10.1379 11.5928 10.5156 11.5928 10.9549V36.4355C11.5928 36.8758 11.668 37.2534 11.8043 37.5615L25.6691 23.6946L11.8041 9.82963ZM12.605 38.3901C13.1189 38.61 13.7893 38.5403 14.5203 38.1257L30.8314 28.857L26.4838 24.5093L12.605 38.3901ZM31.8712 28.2673L36.9882 25.3601C38.5977 24.4441 38.5977 22.9475 36.9882 22.0327L31.8687 19.1237L27.2984 23.6946L31.8712 28.2673ZM30.8297 18.5333L14.5203 9.26587C13.7894 8.85048 13.119 8.78113 12.6051 9.00126L26.4837 22.8799L30.8297 18.5333Z" fill="white"></path><rect x="0.678607" y="1.22744" width="154.386" height="44.9333" rx="5.18462" stroke="white" stroke-width="1.15214"></rect></svg>