<svg xmlns="http://www.w3.org/2000/svg" width="56" height="46" viewBox="0 0 56 46" fill="none"><path opacity="0.4" fill-rule="evenodd" clip-rule="evenodd" d="M20.973 2.36804C20.973 1.33596 20.1205 0.5 19.0705 0.5H19.068L14.9955 0.502452C9.51805 0.507355 5.06055 4.88328 5.06055 10.257V14.905C5.06055 15.9346 5.91305 16.7731 6.96305 16.7731C8.01305 16.7731 8.86805 15.9346 8.86805 14.905V10.257C8.86805 6.94009 11.618 4.24099 14.998 4.23609L19.0705 4.23364C20.123 4.23364 20.973 3.39767 20.973 2.36804ZM40.9846 0.50061H37.0021C35.9521 0.50061 35.0996 1.33657 35.0996 2.36865C35.0996 3.39828 35.9521 4.23179 37.0021 4.23179H40.9846C44.3771 4.23179 47.1371 6.93825 47.1371 10.2649V14.9056C47.1371 15.9353 47.9896 16.7737 49.0396 16.7737C50.0921 16.7737 50.9421 15.9353 50.9421 14.9056V10.2649C50.9421 4.87899 46.4771 0.50061 40.9846 0.50061ZM21.0995 9.85669H34.9095C36.422 9.85669 37.8745 10.4524 38.932 11.5139C39.997 12.5852 40.587 14.0242 40.5845 15.5221V18.6355C40.572 19.0008 40.2745 19.2974 39.902 19.3072H16.102C15.732 19.295 15.4345 18.9983 15.427 18.6355V15.5221C15.3995 12.421 17.9395 9.88856 21.0995 9.85669Z" fill="#0068D6"></path><path d="M53.5975 23.1031H2.405C1.355 23.1031 0.5 23.9391 0.5 24.9712C0.5 26.0008 1.355 26.8343 2.405 26.8343H5.0575V35.7431C5.0575 41.1168 9.5175 45.4927 14.995 45.4976L19.0675 45.5001C20.12 45.5001 20.97 44.6641 20.9725 43.632C20.9725 42.6024 20.12 41.7664 19.07 41.7664L15 41.764C11.6175 41.7591 8.865 39.06 8.865 35.7431V26.8343H15.4225V29.3128C15.3975 32.414 17.935 34.9488 21.095 34.9782H34.905C38.0675 34.9488 40.605 32.414 40.58 29.3128V26.8343H47.1375V35.7333C47.1375 39.0624 44.3775 41.7664 40.985 41.7664H37.0025C35.95 41.7664 35.0975 42.6024 35.0975 43.632C35.0975 44.6641 35.95 45.5001 37.0025 45.5001H40.985C46.475 45.5001 50.9425 41.1217 50.9425 35.7333V26.8343H53.5975C54.6475 26.8343 55.5 26.0008 55.5 24.9712C55.5 23.9391 54.6475 23.1031 53.5975 23.1031Z" fill="#0068D6"></path></svg>