<svg xmlns="http://www.w3.org/2000/svg" width="44" height="50" viewBox="0 0 44 50" fill="none"><path opacity="0.4" d="M22.2162 50C21.9067 50 21.5971 49.9289 21.3177 49.7843L12.315 45.124C9.76039 43.8002 7.76201 42.3146 6.20157 40.5839C2.78622 36.7988 0.886005 31.94 0.855803 26.8998L0.750095 10.3107C0.737511 8.39605 1.97328 6.67757 3.82064 6.03038L20.3513 0.26697C21.3328 -0.0835903 22.4276 -0.0884932 23.4268 0.24981L40.0204 5.81711C41.8778 6.43733 43.1337 8.14355 43.1438 10.0557L43.2495 26.6571C43.2822 31.6899 41.4474 36.5684 38.0849 40.3951C36.5421 42.1504 34.5613 43.658 32.0319 45.0064L23.1097 49.772C22.8329 49.9216 22.5258 49.9975 22.2162 50Z" fill="#0068D6"></path><path d="M20.2972 30.8023C19.814 30.8047 19.3307 30.6307 18.9582 30.2728L14.1662 25.664C13.4262 24.9482 13.4187 23.7862 14.1511 23.0654C14.8835 22.3423 16.079 22.3349 16.8214 23.0483L20.2695 26.3627L28.6883 18.062C29.4233 17.3388 30.6188 17.3314 31.3587 18.0448C32.1012 18.7606 32.1087 19.9251 31.3763 20.6434L21.6286 30.2556C21.2611 30.6184 20.7804 30.7998 20.2972 30.8023Z" fill="#0068D6"></path></svg>