<svg width="85" height="20" viewBox="0 0 85 20" fill="none" xmlns="http://www.w3.org/2000/svg">
<path d="M9.80762 12.578L6.73462 14.4332L7.54374 10.9352L4.83035 8.58144L8.41006 8.27905L9.80762 4.97722L11.2052 8.27905L14.7849 8.58144L12.0715 10.9352L12.8806 14.4332M17.9805 7.55166L12.1042 7.05312L9.80762 1.63452L7.51105 7.05312L1.63477 7.55166L6.08897 11.4174L4.7568 17.1629L9.80762 14.1145L14.8584 17.1629L13.5181 11.4174L17.9805 7.55166Z" fill="#8F9199" fill-opacity="0.5"/>
<path d="M26.1523 12.578L23.0794 14.4332L23.8885 10.9352L21.1751 8.58144L24.7548 8.27905L26.1523 4.97722L27.5499 8.27905L31.1296 8.58144L28.4162 10.9352L29.2253 14.4332M34.3252 7.55166L28.4489 7.05312L26.1523 1.63452L23.8558 7.05312L17.9795 7.55166L22.4337 11.4174L21.1015 17.1629L26.1523 14.1145L31.2032 17.1629L29.8628 11.4174L34.3252 7.55166Z" fill="#8F9199" fill-opacity="0.5"/>
<path d="M42.4966 12.578L39.4236 14.4332L40.2327 10.9352L37.5193 8.58144L41.099 8.27905L42.4966 4.97722L43.8941 8.27905L47.4738 8.58144L44.7605 10.9352L45.5696 14.4332M50.6694 7.55166L44.7932 7.05312L42.4966 1.63452L40.2 7.05312L34.3237 7.55166L38.7779 11.4174L37.4458 17.1629L42.4966 14.1145L47.5474 17.1629L46.2071 11.4174L50.6694 7.55166Z" fill="#8F9199" fill-opacity="0.5"/>
<path d="M58.8438 12.578L55.7708 14.4332L56.5799 10.9352L53.8665 8.58144L57.4462 8.27905L58.8438 4.97722L60.2413 8.27905L63.821 8.58144L61.1076 10.9352L61.9167 14.4332M67.0166 7.55166L61.1403 7.05312L58.8438 1.63452L56.5472 7.05312L50.6709 7.55166L55.1251 11.4174L53.7929 17.1629L58.8438 14.1145L63.8946 17.1629L62.5542 11.4174L67.0166 7.55166Z" fill="#8F9199" fill-opacity="0.5"/>
<path d="M75.1929 12.578L72.1199 14.4332L72.929 10.9352L70.2156 8.58144L73.7953 8.27905L75.1929 4.97722L76.5904 8.27905L80.1701 8.58144L77.4568 10.9352L78.2659 14.4332M83.3657 7.55166L77.4894 7.05312L75.1929 1.63452L72.8963 7.05312L67.02 7.55166L71.4742 11.4174L70.142 17.1629L75.1929 14.1145L80.2437 17.1629L78.9033 11.4174L83.3657 7.55166Z" fill="#8F9199" fill-opacity="0.5"/>
</svg>
